<?xml version="1.0" encoding="utf-8"?>
<!-- Generator: Adobe Illustrator 24.3.0, SVG Export Plug-In . SVG Version: 6.00 Build 0)  -->
<svg version="1.1" id="Layer_40_copy" xmlns="http://www.w3.org/2000/svg" xmlns:xlink="http://www.w3.org/1999/xlink" x="0px"
	 y="0px" viewBox="0 0 1515.12 1348.04" style="enable-background:new 0 0 1515.12 1348.04;" xml:space="preserve">
<style type="text/css">
	.st0{fill:#0E0E59;}
</style>
<circle class="st0" cx="1174.61" cy="154.23" r="9.93"/>
<circle class="st0" cx="1199.43" cy="137.68" r="9.93"/>
<circle class="st0" cx="1199.43" cy="164.16" r="9.93"/>
<circle class="st0" cx="1224.26" cy="150.92" r="9.93"/>
<circle class="st0" cx="1202.74" cy="197.26" r="9.93"/>
<circle class="st0" cx="1224.26" cy="179.05" r="9.93"/>
<circle class="st0" cx="1227.57" cy="207.19" r="9.93"/>
<circle class="st0" cx="1249.08" cy="192.29" r="9.93"/>
<circle class="st0" cx="1249.08" cy="165.81" r="9.93"/>
<circle class="st0" cx="1273.91" cy="149.26" r="9.93"/>
<circle class="st0" cx="1273.91" cy="175.74" r="9.93"/>
<circle class="st0" cx="1298.73" cy="162.5" r="9.93"/>
<circle class="st0" cx="1273.91" cy="207.19" r="9.93"/>
<circle class="st0" cx="1298.73" cy="190.64" r="9.93"/>
<circle class="st0" cx="1298.73" cy="217.12" r="9.93"/>
<circle class="st0" cx="1321.9" cy="205.53" r="9.93"/>
<circle class="st0" cx="1156.41" cy="227.05" r="9.93"/>
<circle class="st0" cx="1181.23" cy="210.5" r="9.93"/>
<circle class="st0" cx="1181.23" cy="236.98" r="9.93"/>
<circle class="st0" cx="1206.05" cy="223.74" r="9.93"/>
<circle class="st0" cx="1181.23" cy="268.42" r="9.93"/>
<circle class="st0" cx="1206.05" cy="251.87" r="9.93"/>
<circle class="st0" cx="1206.05" cy="278.35" r="9.93"/>
<circle class="st0" cx="1230.88" cy="265.11" r="9.93"/>
<circle class="st0" cx="1230.88" cy="238.63" r="9.93"/>
<circle class="st0" cx="1255.7" cy="222.08" r="9.93"/>
<circle class="st0" cx="1255.7" cy="248.56" r="9.93"/>
<circle class="st0" cx="1280.53" cy="235.32" r="9.93"/>
<circle class="st0" cx="1255.7" cy="280.01" r="9.93"/>
<circle class="st0" cx="1280.53" cy="263.46" r="9.93"/>
<circle class="st0" cx="1280.53" cy="289.94" r="9.93"/>
<circle class="st0" cx="1305.35" cy="276.7" r="9.93"/>
<circle class="st0" cx="1305.35" cy="248.56" r="9.93"/>
<circle class="st0" cx="1326.87" cy="261.8" r="9.93"/>
<circle class="st0" cx="1321.9" cy="179.05" r="9.93"/>
<circle class="st0" cx="1315.28" cy="147.61" r="9.93"/>
<circle class="st0" cx="1295.42" cy="134.37" r="9.93"/>
<circle class="st0" cx="1247.43" cy="137.68" r="9.93"/>
<circle class="st0" cx="1272.25" cy="124.44" r="9.93"/>
<circle class="st0" cx="1224.26" cy="122.78" r="9.93"/>
<circle class="st0" cx="1247.43" cy="109.54" r="9.93"/>
<circle class="st0" cx="1202.74" cy="109.54" r="9.93"/>
<circle class="st0" cx="1177.92" cy="124.44" r="9.93"/>
<circle class="st0" cx="1154.75" cy="200.57" r="9.93"/>
<circle class="st0" cx="1179.57" cy="184.02" r="9.93"/>
<circle class="st0" cx="1154.75" cy="139.33" r="9.93"/>
<circle class="st0" cx="1151.44" cy="169.12" r="9.93"/>
<circle class="st0" cx="1062.07" cy="309.79" r="9.93"/>
<circle class="st0" cx="1086.9" cy="293.25" r="9.93"/>
<circle class="st0" cx="1086.9" cy="319.72" r="9.93"/>
<circle class="st0" cx="1111.72" cy="306.48" r="9.93"/>
<circle class="st0" cx="1111.72" cy="334.62" r="9.93"/>
<circle class="st0" cx="1115.03" cy="362.75" r="9.93"/>
<circle class="st0" cx="1136.55" cy="347.86" r="9.93"/>
<circle class="st0" cx="1136.55" cy="321.38" r="9.93"/>
<circle class="st0" cx="1161.37" cy="304.83" r="9.93"/>
<circle class="st0" cx="1161.37" cy="331.31" r="9.93"/>
<circle class="st0" cx="1186.19" cy="318.07" r="9.93"/>
<circle class="st0" cx="1043.87" cy="382.61" r="9.93"/>
<circle class="st0" cx="1068.69" cy="366.06" r="9.93"/>
<circle class="st0" cx="1068.69" cy="392.54" r="9.93"/>
<circle class="st0" cx="1093.52" cy="379.3" r="9.93"/>
<circle class="st0" cx="1093.52" cy="407.44" r="9.93"/>
<circle class="st0" cx="1093.52" cy="433.92" r="9.93"/>
<circle class="st0" cx="1118.34" cy="420.68" r="9.93"/>
<circle class="st0" cx="1118.34" cy="394.2" r="9.93"/>
<circle class="st0" cx="1143.17" cy="377.65" r="9.93"/>
<circle class="st0" cx="1143.17" cy="404.13" r="9.93"/>
<circle class="st0" cx="1143.17" cy="435.57" r="9.93"/>
<circle class="st0" cx="1230.88" cy="291.59" r="9.93"/>
<circle class="st0" cx="1167.99" cy="445.5" r="9.93"/>
<circle class="st0" cx="1202.74" cy="303.17" r="9.93"/>
<circle class="st0" cx="1182.88" cy="289.94" r="9.93"/>
<circle class="st0" cx="1134.89" cy="293.25" r="9.93"/>
<circle class="st0" cx="1159.72" cy="280.01" r="9.93"/>
<circle class="st0" cx="1111.72" cy="278.35" r="9.93"/>
<circle class="st0" cx="1134.89" cy="265.11" r="9.93"/>
<circle class="st0" cx="1090.21" cy="265.11" r="9.93"/>
<circle class="st0" cx="1065.38" cy="280.01" r="9.93"/>
<circle class="st0" cx="1042.21" cy="356.13" r="9.93"/>
<circle class="st0" cx="1067.04" cy="339.58" r="9.93"/>
<circle class="st0" cx="1042.21" cy="294.9" r="9.93"/>
<circle class="st0" cx="1038.9" cy="324.69" r="9.93"/>
<circle class="st0" cx="1227.57" cy="96.31" r="9.93"/>
<circle class="st0" cx="1184.54" cy="93" r="9.93"/>
<circle class="st0" cx="1159.72" cy="107.89" r="9.93"/>
<circle class="st0" cx="1298.73" cy="109.54" r="9.93"/>
<circle class="st0" cx="1275.56" cy="99.62" r="9.93"/>
<circle class="st0" cx="1250.74" cy="84.72" r="9.93"/>
<circle class="st0" cx="1209.36" cy="83.07" r="9.93"/>
<circle class="st0" cx="959.47" cy="116.16" r="9.93"/>
<circle class="st0" cx="984.29" cy="99.62" r="9.93"/>
<circle class="st0" cx="984.29" cy="126.09" r="9.93"/>
<circle class="st0" cx="1009.11" cy="112.85" r="9.93"/>
<circle class="st0" cx="1009.11" cy="140.99" r="9.93"/>
<circle class="st0" cx="1012.42" cy="169.12" r="9.93"/>
<circle class="st0" cx="1033.94" cy="154.23" r="9.93"/>
<circle class="st0" cx="1033.94" cy="127.75" r="9.93"/>
<circle class="st0" cx="1058.76" cy="137.68" r="9.93"/>
<circle class="st0" cx="1058.76" cy="169.12" r="9.93"/>
<circle class="st0" cx="1113.38" cy="222.08" r="9.93"/>
<circle class="st0" cx="1083.59" cy="179.05" r="9.93"/>
<circle class="st0" cx="941.26" cy="188.98" r="9.93"/>
<circle class="st0" cx="966.09" cy="172.43" r="9.93"/>
<circle class="st0" cx="966.09" cy="198.91" r="9.93"/>
<circle class="st0" cx="990.91" cy="185.67" r="9.93"/>
<circle class="st0" cx="969.4" cy="223.74" r="9.93"/>
<circle class="st0" cx="990.91" cy="213.81" r="9.93"/>
<circle class="st0" cx="990.91" cy="240.29" r="9.93"/>
<circle class="st0" cx="1015.73" cy="227.05" r="9.93"/>
<circle class="st0" cx="1015.73" cy="200.57" r="9.93"/>
<circle class="st0" cx="1040.56" cy="184.02" r="9.93"/>
<circle class="st0" cx="1040.56" cy="210.5" r="9.93"/>
<circle class="st0" cx="1065.38" cy="197.26" r="9.93"/>
<circle class="st0" cx="1040.56" cy="241.94" r="9.93"/>
<circle class="st0" cx="1065.38" cy="225.39" r="9.93"/>
<circle class="st0" cx="1065.38" cy="251.87" r="9.93"/>
<circle class="st0" cx="1090.21" cy="238.63" r="9.93"/>
<circle class="st0" cx="1090.21" cy="210.5" r="9.93"/>
<circle class="st0" cx="1111.72" cy="250.22" r="9.93"/>
<circle class="st0" cx="962.78" cy="86.38" r="9.93"/>
<circle class="st0" cx="939.61" cy="162.5" r="9.93"/>
<circle class="st0" cx="964.43" cy="145.95" r="9.93"/>
<circle class="st0" cx="939.61" cy="101.27" r="9.93"/>
<circle class="st0" cx="936.3" cy="131.06" r="9.93"/>
<circle class="st0" cx="896.58" cy="268.42" r="9.93"/>
<circle class="st0" cx="875.06" cy="314.76" r="9.93"/>
<circle class="st0" cx="896.58" cy="296.55" r="9.93"/>
<circle class="st0" cx="899.89" cy="324.69" r="9.93"/>
<circle class="st0" cx="921.4" cy="309.79" r="9.93"/>
<circle class="st0" cx="921.4" cy="283.32" r="9.93"/>
<circle class="st0" cx="946.23" cy="293.25" r="9.93"/>
<circle class="st0" cx="974.36" cy="284.97" r="9.93"/>
<circle class="st0" cx="946.23" cy="324.69" r="9.93"/>
<circle class="st0" cx="853.55" cy="328" r="9.93"/>
<circle class="st0" cx="853.55" cy="354.48" r="9.93"/>
<circle class="st0" cx="878.37" cy="369.37" r="9.93"/>
<circle class="st0" cx="878.37" cy="395.85" r="9.93"/>
<circle class="st0" cx="903.2" cy="382.61" r="9.93"/>
<circle class="st0" cx="903.2" cy="356.13" r="9.93"/>
<circle class="st0" cx="928.02" cy="339.58" r="9.93"/>
<circle class="st0" cx="952.85" cy="407.44" r="9.93"/>
<circle class="st0" cx="980.98" cy="261.8" r="9.93"/>
<circle class="st0" cx="961.12" cy="248.56" r="9.93"/>
<circle class="st0" cx="919.75" cy="255.18" r="9.93"/>
<circle class="st0" cx="937.95" cy="238.63" r="9.93"/>
<circle class="st0" cx="919.75" cy="227.05" r="9.93"/>
<circle class="st0" cx="944.57" cy="69.83" r="9.93"/>
<circle class="st0" cx="1134.89" cy="236.98" r="9.93"/>
<circle class="st0" cx="1019.04" cy="311.45" r="9.93"/>
<circle class="st0" cx="949.54" cy="380.96" r="9.93"/>
<circle class="st0" cx="928.02" cy="427.3" r="9.93"/>
<circle class="st0" cx="994.22" cy="324.69" r="9.93"/>
<circle class="st0" cx="974.36" cy="422.33" r="9.93"/>
<circle class="st0" cx="999.18" cy="379.3" r="9.93"/>
<circle class="st0" cx="999.18" cy="405.78" r="9.93"/>
<circle class="st0" cx="1024.01" cy="392.54" r="9.93"/>
<circle class="st0" cx="999.18" cy="437.23" r="9.93"/>
<circle class="st0" cx="906.51" cy="440.54" r="9.93"/>
<circle class="st0" cx="906.51" cy="467.02" r="9.93"/>
<circle class="st0" cx="931.33" cy="453.78" r="9.93"/>
<circle class="st0" cx="906.51" cy="498.46" r="9.93"/>
<circle class="st0" cx="931.33" cy="481.91" r="9.93"/>
<circle class="st0" cx="931.33" cy="508.39" r="9.93"/>
<circle class="st0" cx="956.16" cy="468.67" r="9.93"/>
<circle class="st0" cx="980.98" cy="452.12" r="9.93"/>
<circle class="st0" cx="980.98" cy="478.6" r="9.93"/>
<circle class="st0" cx="1005.8" cy="465.36" r="9.93"/>
<circle class="st0" cx="980.98" cy="510.04" r="9.93"/>
<circle class="st0" cx="1019.04" cy="339.58" r="9.93"/>
<circle class="st0" cx="1020.7" cy="364.41" r="9.93"/>
<circle class="st0" cx="972.71" cy="367.72" r="9.93"/>
<circle class="st0" cx="997.53" cy="354.48" r="9.93"/>
<circle class="st0" cx="972.71" cy="339.58" r="9.93"/>
<circle class="st0" cx="967.74" cy="309.79" r="9.93"/>
<circle class="st0" cx="992.56" cy="301.52" r="9.93"/>
<circle class="st0" cx="1037.25" cy="270.08" r="9.93"/>
<circle class="st0" cx="1017.39" cy="289.94" r="9.93"/>
<circle class="st0" cx="1000.84" cy="273.39" r="9.93"/>
<circle class="st0" cx="832.03" cy="379.3" r="9.93"/>
<circle class="st0" cx="1025.66" cy="447.16" r="9.93"/>
<circle class="st0" cx="828.72" cy="347.86" r="9.93"/>
<circle class="st0" cx="1042.21" cy="405.78" r="9.93"/>
<circle class="st0" cx="1045.52" cy="432.26" r="9.93"/>
<circle class="st0" cx="1024.01" cy="480.26" r="9.93"/>
<circle class="st0" cx="1045.52" cy="460.4" r="9.93"/>
<circle class="st0" cx="1070.35" cy="473.64" r="9.93"/>
<circle class="st0" cx="1070.35" cy="447.16" r="9.93"/>
<circle class="st0" cx="1095.17" cy="457.09" r="9.93"/>
<circle class="st0" cx="951.19" cy="515.01" r="9.93"/>
<circle class="st0" cx="951.19" cy="543.14" r="9.93"/>
<circle class="st0" cx="832.03" cy="428.95" r="9.93"/>
<circle class="st0" cx="1129.93" cy="493.49" r="9.93"/>
<circle class="st0" cx="1004.15" cy="491.84" r="9.93"/>
<circle class="st0" cx="1154.75" cy="476.95" r="9.93"/>
<circle class="st0" cx="1182.88" cy="468.67" r="9.93"/>
<circle class="st0" cx="878.37" cy="428.95" r="9.93"/>
<circle class="st0" cx="908.16" cy="574.59" r="9.93"/>
<circle class="st0" cx="810.52" cy="473.64" r="9.93"/>
<circle class="st0" cx="835.34" cy="486.87" r="9.93"/>
<circle class="st0" cx="835.34" cy="460.4" r="9.93"/>
<circle class="st0" cx="860.17" cy="443.85" r="9.93"/>
<circle class="st0" cx="860.17" cy="470.33" r="9.93"/>
<circle class="st0" cx="1115.03" cy="470.33" r="9.93"/>
<circle class="st0" cx="742.67" cy="430.61" r="9.93"/>
<circle class="st0" cx="1227.57" cy="495.15" r="9.93"/>
<circle class="st0" cx="881.68" cy="485.22" r="9.93"/>
<circle class="st0" cx="855.2" cy="415.71" r="9.93"/>
<circle class="st0" cx="742.67" cy="460.4" r="9.93"/>
<circle class="st0" cx="764.18" cy="445.5" r="9.93"/>
<circle class="st0" cx="764.18" cy="419.02" r="9.93"/>
<circle class="st0" cx="789" cy="402.47" r="9.93"/>
<circle class="st0" cx="813.83" cy="415.71" r="9.93"/>
<circle class="st0" cx="696.33" cy="463.71" r="9.93"/>
<circle class="st0" cx="696.33" cy="490.18" r="9.93"/>
<circle class="st0" cx="721.15" cy="476.95" r="9.93"/>
<circle class="st0" cx="696.33" cy="521.63" r="9.93"/>
<circle class="st0" cx="721.15" cy="505.08" r="9.93"/>
<circle class="st0" cx="721.15" cy="531.56" r="9.93"/>
<circle class="st0" cx="745.98" cy="518.32" r="9.93"/>
<circle class="st0" cx="770.8" cy="475.29" r="9.93"/>
<circle class="st0" cx="770.8" cy="501.77" r="9.93"/>
<circle class="st0" cx="795.62" cy="488.53" r="9.93"/>
<circle class="st0" cx="770.8" cy="533.21" r="9.93"/>
<circle class="st0" cx="795.62" cy="543.14" r="9.93"/>
<circle class="st0" cx="808.86" cy="362.75" r="9.93"/>
<circle class="st0" cx="883.34" cy="513.35" r="9.93"/>
<circle class="st0" cx="787.35" cy="377.65" r="9.93"/>
<circle class="st0" cx="904.85" cy="415.71" r="9.93"/>
<circle class="st0" cx="1176.26" cy="493.49" r="9.93"/>
<circle class="st0" cx="1202.74" cy="480.26" r="9.93"/>
<circle class="st0" cx="1230.88" cy="473.64" r="9.93"/>
<circle class="st0" cx="1212.67" cy="447.16" r="9.93"/>
<circle class="st0" cx="1120" cy="447.16" r="9.93"/>
<circle class="st0" cx="1164.68" cy="419.02" r="9.93"/>
<circle class="st0" cx="1192.81" cy="430.61" r="9.93"/>
<circle class="st0" cx="1187.85" cy="407.44" r="9.93"/>
<circle class="st0" cx="1156.41" cy="511.7" r="9.93"/>
<circle class="st0" cx="1189.5" cy="528.25" r="9.93"/>
<circle class="st0" cx="1215.98" cy="548.11" r="9.93"/>
<circle class="st0" cx="1239.15" cy="561.35" r="9.93"/>
<circle class="st0" cx="1265.63" cy="574.59" r="9.93"/>
<circle class="st0" cx="1245.77" cy="533.21" r="9.93"/>
<circle class="st0" cx="1268.94" cy="546.45" r="9.93"/>
<circle class="st0" cx="1290.46" cy="556.38" r="9.93"/>
<circle class="st0" cx="1220.95" cy="521.63" r="9.93"/>
<circle class="st0" cx="1254.05" cy="508.39" r="9.93"/>
<circle class="st0" cx="1277.22" cy="521.63" r="9.93"/>
<circle class="st0" cx="1303.7" cy="534.87" r="9.93"/>
<circle class="st0" cx="1283.84" cy="493.49" r="9.93"/>
<circle class="st0" cx="1307.01" cy="506.73" r="9.93"/>
<circle class="st0" cx="1328.52" cy="516.66" r="9.93"/>
<circle class="st0" cx="1259.01" cy="481.91" r="9.93"/>
<circle class="st0" cx="1277.22" cy="465.36" r="9.93"/>
<circle class="st0" cx="1303.7" cy="478.6" r="9.93"/>
<circle class="st0" cx="1355" cy="385.92" r="9.93"/>
<circle class="st0" cx="1307.01" cy="450.47" r="9.93"/>
<circle class="st0" cx="1328.52" cy="460.4" r="9.93"/>
<circle class="st0" cx="1361.62" cy="455.43" r="9.93"/>
<circle class="st0" cx="1315.28" cy="425.64" r="9.93"/>
<circle class="st0" cx="1341.76" cy="438.88" r="9.93"/>
<circle class="st0" cx="1328.52" cy="490.18" r="9.93"/>
<circle class="st0" cx="1345.07" cy="410.75" r="9.93"/>
<circle class="st0" cx="1371.55" cy="428.95" r="9.93"/>
<circle class="st0" cx="1351.69" cy="480.26" r="9.93"/>
<circle class="st0" cx="1376.51" cy="405.78" r="9.93"/>
<circle class="st0" cx="1376.51" cy="371.03" r="9.93"/>
<circle class="st0" cx="1398.03" cy="380.96" r="9.93"/>
<circle class="st0" cx="1386.44" cy="346.2" r="9.93"/>
<circle class="st0" cx="1437.75" cy="253.53" r="9.93"/>
<circle class="st0" cx="1389.75" cy="318.07" r="9.93"/>
<circle class="st0" cx="1411.27" cy="328" r="9.93"/>
<circle class="st0" cx="1434.44" cy="332.96" r="9.93"/>
<circle class="st0" cx="1398.03" cy="293.25" r="9.93"/>
<circle class="st0" cx="1424.51" cy="306.48" r="9.93"/>
<circle class="st0" cx="1427.82" cy="278.35" r="9.93"/>
<circle class="st0" cx="1447.68" cy="303.17" r="9.93"/>
<circle class="st0" cx="1414.58" cy="356.13" r="9.93"/>
<circle class="st0" cx="1457.61" cy="278.35" r="9.93"/>
<circle class="st0" cx="1457.61" cy="232.01" r="9.93"/>
<circle class="st0" cx="1401.34" cy="268.42" r="9.93"/>
<circle class="st0" cx="1411.27" cy="240.29" r="9.93"/>
<circle class="st0" cx="1431.13" cy="218.77" r="9.93"/>
<circle class="st0" cx="1469.19" cy="250.22" r="9.93"/>
<circle class="st0" cx="1407.96" cy="212.15" r="9.93"/>
<circle class="st0" cx="1469.19" cy="210.5" r="9.93"/>
<circle class="st0" cx="1446.02" cy="197.26" r="9.93"/>
<circle class="st0" cx="1419.54" cy="190.64" r="9.93"/>
<circle class="st0" cx="816.5" cy="132.25" r="9.93"/>
<circle class="st0" cx="843.62" cy="150.92" r="9.93"/>
<circle class="st0" cx="865.8" cy="109.7" r="9.93"/>
<circle class="st0" cx="857.14" cy="54.1" r="9.93"/>
<circle class="st0" cx="835.99" cy="94.83" r="9.93"/>
<circle class="st0" cx="832.66" cy="68.35" r="9.93"/>
<circle class="st0" cx="827.68" cy="45.19" r="9.93"/>
<circle class="st0" cx="841.64" cy="121.63" r="9.93"/>
<circle class="st0" cx="811.18" cy="103.12" r="9.93"/>
<circle class="st0" cx="807.84" cy="76.65" r="9.93"/>
<circle class="st0" cx="802.52" cy="47.52" r="9.93"/>
<circle class="st0" cx="781.38" cy="88.25" r="9.93"/>
<circle class="st0" cx="778.04" cy="61.78" r="9.93"/>
<circle class="st0" cx="762.86" cy="110.45" r="9.93"/>
<circle class="st0" cx="757.54" cy="81.32" r="9.93"/>
<circle class="st0" cx="652.63" cy="95.98" r="9.93"/>
<circle class="st0" cx="733.06" cy="95.58" r="9.93"/>
<circle class="st0" cx="704.22" cy="48.93" r="9.93"/>
<circle class="st0" cx="702.92" cy="74.75" r="9.93"/>
<circle class="st0" cx="751.89" cy="54.52" r="9.93"/>
<circle class="st0" cx="678.44" cy="89.01" r="9.93"/>
<circle class="st0" cx="677.09" cy="56.9" r="9.93"/>
<circle class="st0" cx="730.03" cy="41.96" r="9.93"/>
<circle class="st0" cx="655.58" cy="66.85" r="9.93"/>
<circle class="st0" cx="625.24" cy="98.93" r="9.93"/>
<circle class="st0" cx="598.62" cy="89.85" r="9.93"/>
<circle class="st0" cx="572.08" cy="99.77" r="9.93"/>
<circle class="st0" cx="571.08" cy="76.09" r="9.93"/>
<circle class="st0" cx="640.22" cy="46.82" r="9.93"/>
<circle class="st0" cx="547.55" cy="80.77" r="9.93"/>
<circle class="st0" cx="519.36" cy="84.07" r="9.93"/>
<circle class="st0" cx="532.64" cy="61.71" r="9.93"/>
<circle class="st0" cx="594.59" cy="60.29" r="9.93"/>
<circle class="st0" cx="506.16" cy="65.02" r="9.93"/>
<circle class="st0" cx="464.53" cy="78.75" r="9.93"/>
<circle class="st0" cx="522.63" cy="112.16" r="9.93"/>
<circle class="st0" cx="493.07" cy="116.18" r="9.93"/>
<circle class="st0" cx="464.85" cy="108.35" r="9.93"/>
<circle class="st0" cx="469.55" cy="131.98" r="9.93"/>
<circle class="st0" cx="438.91" cy="104.93" r="9.93"/>
<circle class="st0" cx="355.53" cy="84.88" r="9.93"/>
<circle class="st0" cx="418.42" cy="86.54" r="9.93"/>
<circle class="st0" cx="436.64" cy="55.1" r="9.93"/>
<circle class="st0" cx="439.95" cy="162.68" r="9.93"/>
<circle class="st0" cx="398.56" cy="74.96" r="9.93"/>
<circle class="st0" cx="892.28" cy="122.94" r="9.93"/>
<circle class="st0" cx="888.94" cy="96.46" r="9.93"/>
<circle class="st0" cx="883.62" cy="67.34" r="9.93"/>
<circle class="st0" cx="912.47" cy="143.72" r="9.93"/>
<circle class="st0" cx="916.45" cy="117.34" r="9.93"/>
<circle class="st0" cx="919.25" cy="87.87" r="9.93"/>
<circle class="st0" cx="908.16" cy="64.86" r="9.93"/>
<circle class="st0" cx="921.4" cy="198.91" r="9.93"/>
<circle class="st0" cx="946.23" cy="215.46" r="9.93"/>
<circle class="st0" cx="917.45" cy="173.62" r="9.93"/>
<circle class="st0" cx="887.98" cy="156.43" r="9.93"/>
<circle class="st0" cx="868.44" cy="136.02" r="9.93"/>
<circle class="st0" cx="785.7" cy="654.03" r="9.93"/>
<circle class="st0" cx="810.52" cy="637.48" r="9.93"/>
<circle class="st0" cx="810.52" cy="663.96" r="9.93"/>
<circle class="st0" cx="835.34" cy="678.85" r="9.93"/>
<circle class="st0" cx="838.65" cy="706.98" r="9.93"/>
<circle class="st0" cx="860.17" cy="692.09" r="9.93"/>
<circle class="st0" cx="860.17" cy="665.61" r="9.93"/>
<circle class="st0" cx="884.99" cy="649.06" r="9.93"/>
<circle class="st0" cx="884.99" cy="675.54" r="9.93"/>
<circle class="st0" cx="909.82" cy="662.3" r="9.93"/>
<circle class="st0" cx="909.82" cy="690.43" r="9.93"/>
<circle class="st0" cx="909.82" cy="716.91" r="9.93"/>
<circle class="st0" cx="932.99" cy="705.33" r="9.93"/>
<circle class="st0" cx="767.49" cy="726.84" r="9.93"/>
<circle class="st0" cx="792.31" cy="710.29" r="9.93"/>
<circle class="st0" cx="792.31" cy="736.77" r="9.93"/>
<circle class="st0" cx="817.14" cy="723.53" r="9.93"/>
<circle class="st0" cx="792.31" cy="768.22" r="9.93"/>
<circle class="st0" cx="817.14" cy="778.15" r="9.93"/>
<circle class="st0" cx="841.96" cy="764.91" r="9.93"/>
<circle class="st0" cx="841.96" cy="738.43" r="9.93"/>
<circle class="st0" cx="866.79" cy="748.36" r="9.93"/>
<circle class="st0" cx="866.79" cy="779.8" r="9.93"/>
<circle class="st0" cx="891.61" cy="789.73" r="9.93"/>
<circle class="st0" cx="916.44" cy="776.49" r="9.93"/>
<circle class="st0" cx="916.44" cy="748.36" r="9.93"/>
<circle class="st0" cx="937.95" cy="761.6" r="9.93"/>
<circle class="st0" cx="932.99" cy="678.85" r="9.93"/>
<circle class="st0" cx="926.37" cy="647.41" r="9.93"/>
<circle class="st0" cx="906.51" cy="634.17" r="9.93"/>
<circle class="st0" cx="835.34" cy="622.58" r="9.93"/>
<circle class="st0" cx="858.51" cy="609.34" r="9.93"/>
<circle class="st0" cx="813.83" cy="609.34" r="9.93"/>
<circle class="st0" cx="765.84" cy="700.36" r="9.93"/>
<circle class="st0" cx="765.84" cy="639.13" r="9.93"/>
<circle class="st0" cx="762.53" cy="668.92" r="9.93"/>
<circle class="st0" cx="704.6" cy="907.23" r="9.93"/>
<circle class="st0" cx="752.6" cy="910.54" r="9.93"/>
<circle class="st0" cx="841.96" cy="791.39" r="9.93"/>
<circle class="st0" cx="779.08" cy="945.3" r="9.93"/>
<circle class="st0" cx="795.62" cy="592.79" r="9.93"/>
<circle class="st0" cx="770.8" cy="607.69" r="9.93"/>
<circle class="st0" cx="909.82" cy="609.34" r="9.93"/>
<circle class="st0" cx="886.65" cy="599.41" r="9.93"/>
<circle class="st0" cx="861.82" cy="584.52" r="9.93"/>
<circle class="st0" cx="820.45" cy="582.86" r="9.93"/>
<circle class="st0" cx="595.38" cy="599.41" r="9.93"/>
<circle class="st0" cx="595.38" cy="625.89" r="9.93"/>
<circle class="st0" cx="620.2" cy="612.65" r="9.93"/>
<circle class="st0" cx="620.2" cy="640.79" r="9.93"/>
<circle class="st0" cx="645.02" cy="654.03" r="9.93"/>
<circle class="st0" cx="669.85" cy="637.48" r="9.93"/>
<circle class="st0" cx="669.85" cy="668.92" r="9.93"/>
<circle class="st0" cx="724.46" cy="721.88" r="9.93"/>
<circle class="st0" cx="694.67" cy="678.85" r="9.93"/>
<circle class="st0" cx="769.15" cy="754.98" r="9.93"/>
<circle class="st0" cx="552.35" cy="688.78" r="9.93"/>
<circle class="st0" cx="577.17" cy="672.23" r="9.93"/>
<circle class="st0" cx="577.17" cy="698.71" r="9.93"/>
<circle class="st0" cx="601.99" cy="713.6" r="9.93"/>
<circle class="st0" cx="601.99" cy="740.08" r="9.93"/>
<circle class="st0" cx="626.82" cy="726.84" r="9.93"/>
<circle class="st0" cx="626.82" cy="700.36" r="9.93"/>
<circle class="st0" cx="651.64" cy="683.81" r="9.93"/>
<circle class="st0" cx="676.47" cy="697.05" r="9.93"/>
<circle class="st0" cx="651.64" cy="741.74" r="9.93"/>
<circle class="st0" cx="676.47" cy="725.19" r="9.93"/>
<circle class="st0" cx="676.47" cy="751.67" r="9.93"/>
<circle class="st0" cx="701.29" cy="710.29" r="9.93"/>
<circle class="st0" cx="573.86" cy="586.17" r="9.93"/>
<circle class="st0" cx="550.69" cy="662.3" r="9.93"/>
<circle class="st0" cx="575.52" cy="645.75" r="9.93"/>
<circle class="st0" cx="550.69" cy="635.82" r="9.93"/>
<circle class="st0" cx="507.66" cy="768.22" r="9.93"/>
<circle class="st0" cx="486.15" cy="814.56" r="9.93"/>
<circle class="st0" cx="510.97" cy="824.49" r="9.93"/>
<circle class="st0" cx="532.49" cy="809.59" r="9.93"/>
<circle class="st0" cx="532.49" cy="783.11" r="9.93"/>
<circle class="st0" cx="557.31" cy="766.56" r="9.93"/>
<circle class="st0" cx="557.31" cy="793.04" r="9.93"/>
<circle class="st0" cx="585.45" cy="784.77" r="9.93"/>
<circle class="st0" cx="557.31" cy="824.49" r="9.93"/>
<circle class="st0" cx="464.63" cy="854.28" r="9.93"/>
<circle class="st0" cx="489.46" cy="841.04" r="9.93"/>
<circle class="st0" cx="464.63" cy="885.72" r="9.93"/>
<circle class="st0" cx="489.46" cy="869.17" r="9.93"/>
<circle class="st0" cx="539.11" cy="839.38" r="9.93"/>
<circle class="st0" cx="572.21" cy="748.36" r="9.93"/>
<circle class="st0" cx="549.04" cy="738.43" r="9.93"/>
<circle class="st0" cx="745.98" cy="736.77" r="9.93"/>
<circle class="st0" cx="610.27" cy="937.02" r="9.93"/>
<circle class="st0" cx="567.24" cy="1094.24" r="9.93"/>
<circle class="st0" cx="567.24" cy="994.95" r="9.93"/>
<circle class="st0" cx="567.24" cy="968.47" r="9.93"/>
<circle class="st0" cx="616.89" cy="1019.77" r="9.93"/>
<circle class="st0" cx="603.65" cy="801.32" r="9.93"/>
<circle class="st0" cx="648.33" cy="769.87" r="9.93"/>
<circle class="st0" cx="611.92" cy="773.18" r="9.93"/>
<circle class="st0" cx="444.77" cy="905.58" r="9.93"/>
<circle class="st0" cx="443.12" cy="879.1" r="9.93"/>
<circle class="st0" cx="636.75" cy="946.95" r="9.93"/>
<circle class="st0" cx="656.61" cy="986.67" r="9.93"/>
<circle class="st0" cx="681.43" cy="946.95" r="9.93"/>
<circle class="st0" cx="701.29" cy="956.88" r="9.93"/>
<circle class="st0" cx="593.72" cy="1033.01" r="9.93"/>
<circle class="st0" cx="353.75" cy="930.4" r="9.93"/>
<circle class="st0" cx="752.6" cy="956.88" r="9.93"/>
<circle class="st0" cx="328.93" cy="950.26" r="9.93"/>
<circle class="st0" cx="353.75" cy="960.19" r="9.93"/>
<circle class="st0" cx="375.27" cy="918.82" r="9.93"/>
<circle class="st0" cx="400.09" cy="928.75" r="9.93"/>
<circle class="st0" cx="332.24" cy="976.74" r="9.93"/>
<circle class="st0" cx="421.6" cy="887.37" r="9.93"/>
<circle class="st0" cx="398.44" cy="877.44" r="9.93"/>
<circle class="st0" cx="825.41" cy="940.33" r="9.93"/>
<circle class="st0" cx="966.09" cy="885.72" r="9.93"/>
<circle class="st0" cx="929.68" cy="922.13" r="9.93"/>
<circle class="st0" cx="956.16" cy="910.54" r="9.93"/>
<circle class="st0" cx="987.6" cy="905.58" r="9.93"/>
<circle class="st0" cx="1009.11" cy="880.75" r="9.93"/>
<circle class="st0" cx="997.53" cy="846" r="9.93"/>
<circle class="st0" cx="1022.35" cy="827.8" r="9.93"/>
<circle class="st0" cx="1009.11" cy="793.04" r="9.93"/>
<circle class="st0" cx="557.31" cy="715.26" r="9.93"/>
<circle class="st0" cx="941.26" cy="865.86" r="9.93"/>
<circle class="st0" cx="941.26" cy="831.11" r="9.93"/>
<circle class="st0" cx="962.78" cy="841.04" r="9.93"/>
<circle class="st0" cx="976.01" cy="788.08" r="9.93"/>
<circle class="st0" cx="989.25" cy="766.56" r="9.93"/>
<circle class="st0" cx="979.32" cy="816.21" r="9.93"/>
<circle class="st0" cx="966.09" cy="728.5" r="9.93"/>
<circle class="st0" cx="628.47" cy="1047.9" r="9.93"/>
<circle class="st0" cx="593.72" cy="1084.31" r="9.93"/>
<circle class="st0" cx="608.61" cy="1130.65" r="9.93"/>
<circle class="st0" cx="853.55" cy="937.02" r="9.93"/>
<circle class="st0" cx="880.03" cy="932.06" r="9.93"/>
<circle class="st0" cx="904.85" cy="898.96" r="9.93"/>
<circle class="st0" cx="881.68" cy="907.23" r="9.93"/>
<circle class="st0" cx="913.13" cy="875.79" r="9.93"/>
<circle class="st0" cx="837" cy="890.68" r="9.93"/>
<circle class="st0" cx="802.24" cy="862.55" r="9.93"/>
<circle class="st0" cx="851.89" cy="865.86" r="9.93"/>
<circle class="st0" cx="889.96" cy="831.11" r="9.93"/>
<circle class="st0" cx="840.31" cy="841.04" r="9.93"/>
<circle class="st0" cx="863.48" cy="837.73" r="9.93"/>
<circle class="st0" cx="866.79" cy="806.28" r="9.93"/>
<circle class="st0" cx="929.68" cy="801.32" r="9.93"/>
<circle class="st0" cx="980.98" cy="745.05" r="9.93"/>
<circle class="st0" cx="956.16" cy="705.33" r="9.93"/>
<circle class="st0" cx="937.95" cy="733.46" r="9.93"/>
<circle class="st0" cx="595.38" cy="574.59" r="9.93"/>
<circle class="st0" cx="620.2" cy="558.04" r="9.93"/>
<circle class="st0" cx="620.2" cy="584.52" r="9.93"/>
<circle class="st0" cx="645.02" cy="571.28" r="9.93"/>
<circle class="st0" cx="669.85" cy="586.17" r="9.93"/>
<circle class="st0" cx="694.67" cy="596.1" r="9.93"/>
<circle class="st0" cx="598.68" cy="544.8" r="9.93"/>
<circle class="st0" cx="601.99" cy="516.66" r="9.93"/>
<circle class="st0" cx="626.82" cy="500.11" r="9.93"/>
<circle class="st0" cx="651.64" cy="513.35" r="9.93"/>
<circle class="st0" cx="651.64" cy="541.49" r="9.93"/>
<circle class="st0" cx="673.16" cy="501.77" r="9.93"/>
<circle class="st0" cx="577.17" cy="558.04" r="9.93"/>
<circle class="st0" cx="676.47" cy="475.29" r="9.93"/>
<circle class="st0" cx="668.19" cy="611" r="9.93"/>
<circle class="st0" cx="693.02" cy="620.93" r="9.93"/>
<circle class="st0" cx="671.5" cy="556.38" r="9.93"/>
<circle class="st0" cx="696.33" cy="566.31" r="9.93"/>
<circle class="st0" cx="741.01" cy="649.06" r="9.93"/>
<circle class="st0" cx="714.53" cy="663.96" r="9.93"/>
<circle class="st0" cx="717.84" cy="609.34" r="9.93"/>
<circle class="st0" cx="742.67" cy="619.27" r="9.93"/>
<circle class="st0" cx="719.5" cy="690.43" r="9.93"/>
<circle class="st0" cx="774.11" cy="582.86" r="9.93"/>
<circle class="st0" cx="745.98" cy="594.45" r="9.93"/>
<circle class="st0" cx="770.8" cy="558.04" r="9.93"/>
<circle class="st0" cx="724.46" cy="558.04" r="9.93"/>
<circle class="st0" cx="744.32" cy="548.11" r="9.93"/>
<circle class="st0" cx="823.76" cy="553.07" r="9.93"/>
<circle class="st0" cx="828.72" cy="528.25" r="9.93"/>
<circle class="st0" cx="858.51" cy="539.83" r="9.93"/>
<circle class="st0" cx="878.37" cy="566.31" r="9.93"/>
<circle class="st0" cx="904.85" cy="548.11" r="9.93"/>
<circle class="st0" cx="928.02" cy="533.21" r="9.93"/>
<circle class="st0" cx="906.51" cy="523.28" r="9.93"/>
<circle class="st0" cx="362.03" cy="839.38" r="9.93"/>
<circle class="st0" cx="340.51" cy="852.62" r="9.93"/>
<circle class="st0" cx="365.34" cy="865.86" r="9.93"/>
<circle class="st0" cx="365.34" cy="893.99" r="9.93"/>
<circle class="st0" cx="320.65" cy="930.4" r="9.93"/>
<circle class="st0" cx="319" cy="903.92" r="9.93"/>
<circle class="st0" cx="229.63" cy="955.23" r="9.93"/>
<circle class="st0" cx="251.14" cy="970.12" r="9.93"/>
<circle class="st0" cx="251.14" cy="943.64" r="9.93"/>
<circle class="st0" cx="275.97" cy="927.09" r="9.93"/>
<circle class="st0" cx="275.97" cy="953.57" r="9.93"/>
<circle class="st0" cx="388.51" cy="852.62" r="9.93"/>
<circle class="st0" cx="208.12" cy="1001.57" r="9.93"/>
<circle class="st0" cx="295.83" cy="887.37" r="9.93"/>
<circle class="st0" cx="297.48" cy="912.2" r="9.93"/>
<circle class="st0" cx="414.98" cy="836.07" r="9.93"/>
<circle class="st0" cx="419.95" cy="807.94" r="9.93"/>
<circle class="st0" cx="459.67" cy="768.22" r="9.93"/>
<circle class="st0" cx="486.15" cy="753.32" r="9.93"/>
<circle class="st0" cx="439.81" cy="821.18" r="9.93"/>
<circle class="st0" cx="464.63" cy="801.32" r="9.93"/>
<circle class="st0" cx="459.67" cy="741.74" r="9.93"/>
<circle class="st0" cx="510.97" cy="736.77" r="9.93"/>
<circle class="st0" cx="481.18" cy="726.84" r="9.93"/>
<circle class="st0" cx="489.46" cy="703.67" r="9.93"/>
<circle class="st0" cx="510.97" cy="687.12" r="9.93"/>
<circle class="st0" cx="67.44" cy="1115.76" r="9.93"/>
<circle class="st0" cx="100.54" cy="1226.64" r="9.93"/>
<circle class="st0" cx="45.93" cy="1137.27" r="9.93"/>
<circle class="st0" cx="194.88" cy="1029.7" r="9.93"/>
<circle class="st0" cx="241.21" cy="1037.98" r="9.93"/>
<circle class="st0" cx="239.56" cy="1009.84" r="9.93"/>
<circle class="st0" cx="123.71" cy="1175.34" r="9.93"/>
<circle class="st0" cx="284.24" cy="1004.88" r="9.93"/>
<circle class="st0" cx="156.81" cy="1064.45" r="9.93"/>
<circle class="st0" cx="181.64" cy="1077.69" r="9.93"/>
<circle class="st0" cx="156.81" cy="1122.38" r="9.93"/>
<circle class="st0" cx="136.95" cy="1142.24" r="9.93"/>
<circle class="st0" cx="102.2" cy="1186.92" r="9.93"/>
<circle class="st0" cx="67.44" cy="1181.96" r="9.93"/>
<circle class="st0" cx="92.27" cy="1138.93" r="9.93"/>
<circle class="st0" cx="204.81" cy="1071.07" r="9.93"/>
<circle class="st0" cx="49.24" cy="1226.64" r="9.93"/>
<circle class="st0" cx="112.13" cy="1099.21" r="9.93"/>
<circle class="st0" cx="80.68" cy="1306.08" r="9.93"/>
<circle class="st0" cx="85.65" cy="1279.6" r="9.93"/>
<circle class="st0" cx="131.99" cy="1306.08" r="9.93"/>
</svg>
